<svg xmlns="http://www.w3.org/2000/svg" width="18" height="17" viewBox="0 0 18 17" fill="none">
  <path  d="M9.55611 7.66096H4.43036C4.20379 7.66096 3.9865 7.57487 3.82629 7.42163C3.66608 7.26838 3.57607 7.06054 3.57607 6.84382C3.57607 6.6271 3.66608 6.41925 3.82629 6.26601C3.9865 6.11276 4.20379 6.02667 4.43036 6.02667H9.55611C9.78268 6.02667 9.99997 6.11276 10.1602 6.26601C10.3204 6.41925 10.4104 6.6271 10.4104 6.84382C10.4104 7.06054 10.3204 7.26838 10.1602 7.42163C9.99997 7.57487 9.78268 7.66096 9.55611 7.66096ZM12.9733 6.02667C13.1422 6.02667 13.3074 6.07459 13.4479 6.16438C13.5884 6.25417 13.6979 6.38179 13.7625 6.53111C13.8272 6.68042 13.8441 6.84472 13.8111 7.00323C13.7782 7.16174 13.6968 7.30735 13.5773 7.42163C13.4579 7.53591 13.3056 7.61373 13.1399 7.64526C12.9742 7.67679 12.8024 7.66061 12.6463 7.59876C12.4902 7.53691 12.3568 7.43218 12.263 7.2978C12.1691 7.16342 12.119 7.00543 12.119 6.84382C12.119 6.6271 12.209 6.41925 12.3692 6.26601C12.5294 6.11276 12.7467 6.02667 12.9733 6.02667ZM12.9733 9.29526C13.1422 9.29526 13.3074 9.34318 13.4479 9.43297C13.5884 9.52276 13.6979 9.65038 13.7625 9.7997C13.8272 9.94901 13.8441 10.1133 13.8111 10.2718C13.7782 10.4303 13.6968 10.5759 13.5773 10.6902C13.4579 10.8045 13.3056 10.8823 13.1399 10.9138C12.9742 10.9454 12.8024 10.9292 12.6463 10.8673C12.4902 10.8055 12.3568 10.7008 12.263 10.5664C12.1691 10.432 12.119 10.274 12.119 10.1124C12.119 9.89568 12.209 9.68784 12.3692 9.53459C12.5294 9.38135 12.7467 9.29526 12.9733 9.29526ZM8.70182 0.306641C9.82369 0.306641 10.9346 0.518002 11.971 0.928657C13.0075 1.33931 13.9493 1.94122 14.7426 2.70001C16.3447 4.23246 17.2447 6.3109 17.2447 8.47811C17.2522 10.365 16.5692 12.1949 15.314 13.6507L17.0226 15.2849C17.1411 15.3999 17.2214 15.5458 17.2534 15.7043C17.2853 15.8628 17.2674 16.0268 17.202 16.1756C17.131 16.3227 17.016 16.4462 16.8715 16.5306C16.727 16.615 16.5596 16.6564 16.3904 16.6496H8.70182C6.4361 16.6496 4.26318 15.7887 2.66107 14.2562C1.05897 12.7238 0.158913 10.6453 0.158913 8.47811C0.158913 6.3109 1.05897 4.23246 2.66107 2.70001C4.26318 1.16756 6.4361 0.306641 8.70182 0.306641ZM8.70182 15.0153H14.3316L13.5371 14.2553C13.4564 14.1797 13.3922 14.0894 13.3482 13.9898C13.3042 13.8902 13.2813 13.7833 13.2808 13.6752C13.284 13.4596 13.3761 13.254 13.5371 13.1032C14.6557 12.0344 15.3523 10.6276 15.5082 9.12267C15.6641 7.61769 15.2696 6.10757 14.3921 4.84959C13.5145 3.5916 12.208 2.66359 10.6953 2.22365C9.18258 1.78371 7.55719 1.85906 6.09605 2.43687C4.6349 3.01468 3.42841 4.0592 2.68211 5.39247C1.93582 6.72574 1.69589 8.26528 2.00322 9.74878C2.31054 11.2323 3.1461 12.568 4.36754 13.5283C5.58898 14.4886 7.12073 15.0141 8.70182 15.0153ZM4.43036 9.29526H9.55611C9.78268 9.29526 9.99997 9.38135 10.1602 9.53459C10.3204 9.68784 10.4104 9.89568 10.4104 10.1124C10.4104 10.3291 10.3204 10.537 10.1602 10.6902C9.99997 10.8435 9.78268 10.9296 9.55611 10.9296H4.43036C4.20379 10.9296 3.9865 10.8435 3.82629 10.6902C3.66608 10.537 3.57607 10.3291 3.57607 10.1124C3.57607 9.89568 3.66608 9.68784 3.82629 9.53459C3.9865 9.38135 4.20379 9.29526 4.43036 9.29526Z" fill="#4F8BE4"/>
</svg>