<svg xmlns="http://www.w3.org/2000/svg" width="23" height="23" viewBox="0 0 23 23" fill="none">
  <g>
    <path d="M8.27637 9.93262H4.15137C3.78682 9.93221 3.43732 9.78721 3.17955 9.52944C2.92177 9.27166 2.77678 8.92216 2.77637 8.55762V4.43262C2.77678 4.06807 2.92177 3.71857 3.17955 3.4608C3.43732 3.20302 3.78682 3.05803 4.15137 3.05762H8.27637C8.64091 3.05803 8.99041 3.20302 9.24819 3.4608C9.50596 3.71857 9.65096 4.06807 9.65137 4.43262V5.80762H10.3389C11.068 5.80844 11.767 6.09843 12.2825 6.61398C12.7981 7.12953 13.088 7.82852 13.0889 8.55762V10.6201H15.1514V9.58887C15.1518 9.22432 15.2968 8.87482 15.5545 8.61705C15.8123 8.35927 16.1618 8.21428 16.5264 8.21387H19.9639C20.3284 8.21428 20.6779 8.35927 20.9357 8.61705C21.1935 8.87482 21.3385 9.22432 21.3389 9.58887V13.0264C21.3385 13.3909 21.1935 13.7404 20.9357 13.9982C20.6779 14.256 20.3284 14.401 19.9639 14.4014H16.5264C16.1618 14.401 15.8123 14.256 15.5545 13.9982C15.2968 13.7404 15.1518 13.3909 15.1514 13.0264V11.9951H13.0889V14.0576C13.088 14.7867 12.7981 15.4857 12.2825 16.0013C11.767 16.5168 11.068 16.8068 10.3389 16.8076H9.65137V18.1826C9.65096 18.5472 9.50596 18.8967 9.24819 19.1544C8.99041 19.4122 8.64091 19.5572 8.27637 19.5576H4.15137C3.78682 19.5572 3.43732 19.4122 3.17955 19.1544C2.92177 18.8967 2.77678 18.5472 2.77637 18.1826V14.0576C2.77678 13.6931 2.92177 13.3436 3.17955 13.0858C3.43732 12.828 3.78682 12.683 4.15137 12.6826H8.27637C8.64091 12.683 8.99041 12.828 9.24819 13.0858C9.50596 13.3436 9.65096 13.6931 9.65137 14.0576V15.4326H10.3389C10.7034 15.4322 11.0529 15.2872 11.3107 15.0294C11.5685 14.7717 11.7135 14.4222 11.7139 14.0576V8.55762C11.7135 8.19307 11.5685 7.84357 11.3107 7.5858C11.0529 7.32802 10.7034 7.18303 10.3389 7.18262H9.65137V8.55762C9.65096 8.92216 9.50596 9.27166 9.24819 9.52944C8.99041 9.78721 8.64091 9.93221 8.27637 9.93262ZM16.5264 13.0264H19.9639V9.58887H16.5264L16.5259 11.2994C16.5259 11.3021 16.5264 11.3049 16.5264 11.3076C16.5264 11.3105 16.5259 11.3131 16.5259 11.316L16.5255 13.0264H16.5264ZM8.27637 14.0576H4.15137L4.15051 18.1826H8.27637V14.0576ZM8.27637 4.43262H4.15137L4.15051 8.55762H8.27637V4.43262Z" fill="#4F8BE4"/>
  </g>
</svg>