<svg xmlns="http://www.w3.org/2000/svg" width="21" height="21" viewBox="0 0 21 21" fill="none">
  <g>
    <path d="M7.38062 10.1641H5.71395V13.4974H7.38062V10.1641Z" fill="#4F8BE4"/>
    <path d="M4.04712 5.9974V4.33073C4.04712 3.41156 4.79462 2.66406 5.71379 2.66406H16.5471C17.9255 2.66406 19.0471 3.78573 19.0471 5.16406V15.1641C19.0471 16.9982 17.5521 17.6641 16.5471 17.6641H4.04712C3.12795 17.6641 2.38045 16.9166 2.38045 15.9974V7.66406C2.38045 6.7449 3.12795 5.9974 4.04712 5.9974ZM16.5471 4.33073H5.71379V5.9974H16.5471C16.7617 5.9878 16.9643 5.89581 17.1127 5.74058C17.2612 5.58535 17.344 5.37884 17.344 5.16406C17.344 4.94928 17.2612 4.74278 17.1127 4.58755C16.9643 4.43232 16.7617 4.34033 16.5471 4.33073ZM4.04712 15.9974H16.5371C16.9221 15.9874 17.3805 15.8349 17.3805 15.1641V7.5099C17.1188 7.60406 16.8413 7.66406 16.5471 7.66406H4.04712V15.9974Z" fill="#4F8BE4"/>
  </g>
</svg>