<svg xmlns="http://www.w3.org/2000/svg" width="24" height="23" viewBox="0 0 24 23" fill="none">
  <g>
    <path d="M18.6857 6.51191L13.6545 1.69941C13.5107 1.56191 13.367 1.49316 13.1514 1.49316H5.96387C5.17324 1.49316 4.52637 2.11191 4.52637 2.86816V19.3682C4.52637 20.1244 5.17324 20.7432 5.96387 20.7432H17.4639C18.2545 20.7432 18.9014 20.1244 18.9014 19.3682V6.99316C18.9014 6.78691 18.8295 6.64941 18.6857 6.51191ZM13.1514 3.14316L17.1764 6.99316H13.1514V3.14316ZM17.4639 19.3682H5.96387V2.86816H11.7139V6.99316C11.7139 7.74941 12.3607 8.36816 13.1514 8.36816H17.4639V19.3682Z" fill="#4F8BE4"/>
    <path d="M7.40137 15.9307C7.40137 15.551 7.70917 15.2432 8.08887 15.2432H15.3389C15.7186 15.2432 16.0264 15.551 16.0264 15.9307C16.0264 16.3104 15.7186 16.6182 15.3389 16.6182H8.08887C7.70917 16.6182 7.40137 16.3104 7.40137 15.9307Z" fill="#4F8BE4"/>
    <path d="M7.40137 11.8057C7.40137 11.426 7.70917 11.1182 8.08887 11.1182H15.3389C15.7186 11.1182 16.0264 11.426 16.0264 11.8057C16.0264 12.1854 15.7186 12.4932 15.3389 12.4932H8.08887C7.70917 12.4932 7.40137 12.1854 7.40137 11.8057Z" fill="#4F8BE4"/>
  </g>
</svg>