<svg xmlns="http://www.w3.org/2000/svg" width="23" height="18" viewBox="0 0 23 18" fill="none">
  <g  clip-path="url(#clip0_50_398)">
    <path d="M14.312 8.55967C13.6268 8.55967 12.9571 8.36081 12.3874 7.98823C11.8177 7.61566 11.3737 7.08611 11.1115 6.46655C10.8493 5.84698 10.7807 5.16523 10.9144 4.50751C11.0481 3.84978 11.378 3.24562 11.8625 2.77143C12.3469 2.29723 12.9642 1.9743 13.6362 1.84347C14.3082 1.71264 15.0047 1.77979 15.6377 2.03642C16.2707 2.29305 16.8117 2.72764 17.1923 3.28524C17.573 3.84283 17.7762 4.49838 17.7762 5.16899C17.7762 6.06826 17.4112 6.93069 16.7615 7.56656C16.1119 8.20244 15.2307 8.55967 14.312 8.55967ZM14.312 3.47366C13.9694 3.47366 13.6345 3.57309 13.3497 3.75937C13.0649 3.94566 12.8429 4.21043 12.7118 4.52022C12.5807 4.83 12.5464 5.17087 12.6132 5.49974C12.68 5.8286 12.845 6.13068 13.0872 6.36778C13.3295 6.60487 13.6381 6.76634 13.9741 6.83176C14.3101 6.89717 14.6583 6.8636 14.9748 6.73528C15.2913 6.60696 15.5618 6.38967 15.7522 6.11087C15.9425 5.83208 16.0441 5.5043 16.0441 5.16899C16.0441 4.71936 15.8616 4.28815 15.5368 3.97021C15.2119 3.65227 14.7714 3.47366 14.312 3.47366ZM7.38368 10.255C6.86982 10.255 6.3675 10.1059 5.94025 9.82643C5.51299 9.547 5.17998 9.14984 4.98333 8.68516C4.78669 8.22049 4.73524 7.70918 4.83549 7.21588C4.93573 6.72259 5.18318 6.26947 5.54653 5.91382C5.90989 5.55818 6.37283 5.31598 6.87681 5.21786C7.3808 5.11974 7.90319 5.17009 8.37794 5.36257C8.85268 5.55504 9.25845 5.88099 9.54394 6.29918C9.82942 6.71738 9.9818 7.20904 9.9818 7.712C9.9818 8.38645 9.70807 9.03327 9.22083 9.51017C8.73359 9.98708 8.07274 10.255 7.38368 10.255ZM7.38368 6.86433C7.21239 6.86433 7.04495 6.91405 6.90254 7.00719C6.76012 7.10033 6.64911 7.23272 6.58357 7.38761C6.51802 7.5425 6.50087 7.71294 6.53428 7.87737C6.5677 8.0418 6.65018 8.19284 6.7713 8.31139C6.89242 8.42994 7.04673 8.51067 7.21472 8.54338C7.38272 8.57609 7.55685 8.5593 7.7151 8.49514C7.87335 8.43098 8.00861 8.32234 8.10377 8.18294C8.19893 8.04354 8.24972 7.87965 8.24972 7.712C8.24972 7.48718 8.15848 7.27158 7.99606 7.11261C7.83365 6.95364 7.61337 6.86433 7.38368 6.86433ZM7.38368 11.1027C8.3434 11.1037 9.27558 11.4168 10.0338 11.9927C10.882 11.1657 11.9615 10.6031 13.1361 10.3757C14.3106 10.1484 15.5276 10.2666 16.6336 10.7154C17.7397 11.1642 18.6851 11.9235 19.3508 12.8976C20.0165 13.8716 20.3726 15.0168 20.3743 16.1887C20.3743 16.4135 20.283 16.6291 20.1206 16.7881C19.9582 16.947 19.7379 17.0363 19.5082 17.0363C19.2785 17.0363 19.0583 16.947 18.8958 16.7881C18.7334 16.6291 18.6422 16.4135 18.6422 16.1887C18.6422 15.0646 18.186 13.9866 17.3739 13.1917C16.5618 12.3969 15.4604 11.9503 14.312 11.9503C13.1636 11.9503 12.0622 12.3969 11.2501 13.1917C10.438 13.9866 9.9818 15.0646 9.9818 16.1887C9.9818 16.4135 9.89056 16.6291 9.72814 16.7881C9.56573 16.947 9.34545 17.0363 9.11576 17.0363C8.88607 17.0363 8.66579 16.947 8.50338 16.7881C8.34096 16.6291 8.24972 16.4135 8.24972 16.1887C8.24765 15.1956 8.50397 14.2183 8.99451 13.349C8.61179 13.053 8.15166 12.8684 7.66677 12.8164C7.18188 12.7643 6.69182 12.847 6.25267 13.0548C5.81352 13.2627 5.44302 13.5873 5.18357 13.9916C4.92411 14.3959 4.78618 14.8636 4.78556 15.341C4.78556 15.5658 4.69432 15.7814 4.53191 15.9404C4.36949 16.0994 4.14921 16.1887 3.91953 16.1887C3.68984 16.1887 3.46955 16.0994 3.30714 15.9404C3.14473 15.7814 3.05349 15.5658 3.05349 15.341C3.05349 14.2169 3.5097 13.1389 4.32177 12.3441C5.13384 11.5492 6.23524 11.1027 7.38368 11.1027Z" fill="#4F8BE4"/>
  </g>
  <defs>
    <clipPath id="clip0_50_398">
      <rect width="22" height="17" fill="white" transform="matrix(-1 0 0 1 22.7139 0.907227)"/>
    </clipPath>
  </defs>
</svg>