<svg xmlns="http://www.w3.org/2000/svg" width="19" height="19" viewBox="0 0 19 19" fill="none">
  <path opacity="0.8" d="M17.8483 10.5251H16.9445V16.6174C16.9445 17.5774 16.1338 18.3581 15.1369 18.3581H4.29115C3.29424 18.3581 2.48352 17.5774 2.48352 16.6174V10.5251H1.57971C1.40098 10.525 1.22627 10.474 1.07768 10.3783C0.929083 10.2827 0.813271 10.1468 0.744879 9.98776C0.676487 9.82875 0.658588 9.65379 0.693445 9.48498C0.728304 9.31618 0.814352 9.16111 0.940714 9.0394L9.07503 1.20636C9.15889 1.12546 9.25849 1.06128 9.36814 1.0175C9.47778 0.97371 9.59532 0.951172 9.71402 0.951172C9.83272 0.951172 9.95026 0.97371 10.0599 1.0175C10.1695 1.06128 10.2692 1.12546 10.353 1.20636L18.4873 9.0394C18.6137 9.16111 18.6997 9.31618 18.7346 9.48498C18.7695 9.65379 18.7516 9.82875 18.6832 9.98776C18.6148 10.1468 18.499 10.2827 18.3504 10.3783C18.2018 10.474 18.0271 10.525 17.8483 10.5251ZM11.5216 16.6174V12.2657H7.9064V16.6174H11.5216ZM9.71402 3.05234L4.29115 8.27437V12.2657L4.29024 16.6174H6.09877V12.2657C6.09877 11.3058 6.90949 10.5251 7.9064 10.5251H11.5216C12.5186 10.5251 13.3293 11.3058 13.3293 12.2657V16.6174H15.1369V8.27437L9.71402 3.05234Z" fill="white"/>
</svg>