<svg xmlns="http://www.w3.org/2000/svg" width="25" height="24" viewBox="0 0 25 24" fill="none">
  <g opacity="0.8">
    <path d="M12.2139 10.25C12.2139 10.0511 12.1348 9.86032 11.9942 9.71967C11.8535 9.57902 11.6628 9.5 11.4639 9.5H7.96386C7.76495 9.5 7.57418 9.57902 7.43353 9.71967C7.29288 9.86032 7.21386 10.0511 7.21386 10.25C7.21386 10.4489 7.29288 10.6397 7.43353 10.7803C7.57418 10.921 7.76495 11 7.96386 11H11.4639C11.6628 11 11.8535 10.921 11.9942 10.7803C12.1348 10.6397 12.2139 10.4489 12.2139 10.25ZM11.4639 15C11.6628 15 11.8535 15.079 11.9942 15.2197C12.1348 15.3603 12.2139 15.5511 12.2139 15.75C12.2139 15.9489 12.1348 16.1397 11.9942 16.2803C11.8535 16.421 11.6628 16.5 11.4639 16.5H7.96386C7.76495 16.5 7.57418 16.421 7.43353 16.2803C7.29288 16.1397 7.21386 15.9489 7.21386 15.75C7.21386 15.5511 7.29288 15.3603 7.43353 15.2197C7.57418 15.079 7.76495 15 7.96386 15H11.4639ZM13.9339 9.78C13.8602 9.71134 13.8011 9.62854 13.7601 9.53654C13.7191 9.44454 13.697 9.34523 13.6953 9.24452C13.6935 9.14382 13.712 9.04379 13.7497 8.9504C13.7875 8.85702 13.8436 8.77218 13.9148 8.70096C13.986 8.62974 14.0709 8.5736 14.1643 8.53588C14.2577 8.49816 14.3577 8.47963 14.4584 8.48141C14.5591 8.48319 14.6584 8.50523 14.7504 8.54622C14.8424 8.58721 14.9252 8.64631 14.9939 8.72L16.4639 10.19L16.9339 9.72C17.076 9.58752 17.2641 9.5154 17.4584 9.51883C17.6527 9.52225 17.8381 9.60097 17.9755 9.73838C18.1129 9.87579 18.1916 10.0612 18.195 10.2555C18.1985 10.4498 18.1263 10.6378 17.9939 10.78L16.9939 11.78C16.8532 11.9205 16.6626 11.9993 16.4639 11.9993C16.2651 11.9993 16.0745 11.9205 15.9339 11.78L13.9339 9.78ZM13.9339 14.22C13.7934 14.3606 13.7145 14.5513 13.7145 14.75C13.7145 14.9488 13.7934 15.1394 13.9339 15.28L15.9339 17.28C16.0745 17.4205 16.2651 17.4993 16.4639 17.4993C16.6626 17.4993 16.8532 17.4205 16.9939 17.28L17.9939 16.28C18.0676 16.2113 18.1267 16.1285 18.1676 16.0365C18.2086 15.9445 18.2307 15.8452 18.2325 15.7445C18.2342 15.6438 18.2157 15.5438 18.178 15.4504C18.1403 15.357 18.0841 15.2722 18.0129 15.201C17.9417 15.1297 17.8569 15.0736 17.7635 15.0359C17.6701 14.9982 17.57 14.9796 17.4693 14.9814C17.3686 14.9832 17.2693 15.0052 17.1773 15.0462C17.0853 15.0872 17.0025 15.1463 16.9339 15.22L16.4639 15.69L14.9939 14.22C14.8532 14.0796 14.6626 14.0007 14.4639 14.0007C14.2651 14.0007 14.0745 14.0796 13.9339 14.22ZM8.71986 4.084C8.76177 3.51752 9.01639 2.98786 9.4326 2.60132C9.84882 2.21478 10.3958 1.99997 10.9639 2H14.4639C15.0173 2.00002 15.5513 2.20401 15.9638 2.57297C16.3763 2.94194 16.6384 3.44999 16.6999 4H18.4639C19.0606 4 19.6329 4.23705 20.0549 4.65901C20.4768 5.08097 20.7139 5.65326 20.7139 6.25V19.75C20.7139 20.3467 20.4768 20.919 20.0549 21.341C19.6329 21.7629 19.0606 22 18.4639 22H6.96386C6.66839 22 6.37581 21.9418 6.10282 21.8287C5.82984 21.7157 5.5818 21.5499 5.37287 21.341C5.16394 21.1321 4.99821 20.884 4.88513 20.611C4.77206 20.3381 4.71386 20.0455 4.71386 19.75V6.25C4.71386 5.95453 4.77206 5.66195 4.88513 5.38896C4.99821 5.11598 5.16394 4.86794 5.37287 4.65901C5.5818 4.45008 5.82984 4.28434 6.10282 4.17127C6.37581 4.0582 6.66839 4 6.96386 4H8.72786L8.71986 4.084ZM8.71986 4.096L8.71386 4.25C8.71386 4.198 8.71586 4.147 8.71886 4.096H8.71986ZM14.4639 6.5H10.9639C10.1839 6.5 9.49686 6.103 9.09286 5.5H6.96386C6.76495 5.5 6.57418 5.57902 6.43353 5.71967C6.29288 5.86032 6.21386 6.05109 6.21386 6.25V19.75C6.21386 19.9489 6.29288 20.1397 6.43353 20.2803C6.57418 20.421 6.76495 20.5 6.96386 20.5H18.4639C18.6628 20.5 18.8535 20.421 18.9942 20.2803C19.1348 20.1397 19.2139 19.9489 19.2139 19.75V6.25C19.2139 6.05109 19.1348 5.86032 18.9942 5.71967C18.8535 5.57902 18.6628 5.5 18.4639 5.5H16.3349C15.9309 6.103 15.2439 6.5 14.4639 6.5ZM14.4639 3.5H10.9639C10.765 3.5 10.5742 3.57902 10.4335 3.71967C10.2929 3.86032 10.2139 4.05109 10.2139 4.25C10.2139 4.44891 10.2929 4.63968 10.4335 4.78033C10.5742 4.92098 10.765 5 10.9639 5H14.4639C14.6628 5 14.8535 4.92098 14.9942 4.78033C15.1348 4.63968 15.2139 4.44891 15.2139 4.25C15.2139 4.05109 15.1348 3.86032 14.9942 3.71967C14.8535 3.57902 14.6628 3.5 14.4639 3.5Z" fill="#F5F7FB"/>
  </g>
</svg>